<mxfile host="app.diagrams.net" agent="Mozilla/5.0 (Windows NT 10.0; Win64; x64) AppleWebKit/537.36 (KHTML, like Gecko) Chrome/131.0.0.0 Safari/537.36 Edg/131.0.0.0" version="27.1.5">
  <diagram name="Seite-1" id="jSJ701ttfHyzZoRzbqu0">
    <mxGraphModel grid="1" page="1" gridSize="10" guides="1" tooltips="1" connect="1" arrows="1" fold="1" pageScale="1" pageWidth="827" pageHeight="1169" math="0" shadow="0">
      <root>
        <mxCell id="0" />
        <mxCell id="1" parent="0" />
        <UserObject label="E28 Conceptual Object" tags="cidoc" id="LwwzHbmZy4C10oGqhaBs-1">
          <mxCell style="rounded=1;html=1;perimeterSpacing=0;arcSize=50;treeFolding=0;whiteSpace=wrap;fontFamily=Verdana;spacingTop=0;spacingBottom=0;spacing=2;fillColor=#fff2cc;strokeColor=#d6b656;fontSize=11.5;" vertex="1" parent="1">
            <mxGeometry x="-65" y="60" width="101" height="40" as="geometry" />
          </mxCell>
        </UserObject>
        <UserObject label="" tags="subclass_of" id="LwwzHbmZy4C10oGqhaBs-48">
          <mxCell style="rounded=1;orthogonalLoop=1;jettySize=auto;html=1;exitX=0.5;exitY=0;exitDx=0;exitDy=0;entryX=0.5;entryY=1;entryDx=0;entryDy=0;fontFamily=Verdana;spacingTop=0;spacingBottom=0;spacing=2;" edge="1" parent="1" source="LwwzHbmZy4C10oGqhaBs-2" target="LwwzHbmZy4C10oGqhaBs-1">
            <mxGeometry relative="1" as="geometry">
              <mxPoint x="-190" y="90" as="targetPoint" />
            </mxGeometry>
          </mxCell>
        </UserObject>
        <UserObject label="E55 Type&lt;span style=&quot;color: rgba(0, 0, 0, 0); font-size: 0px; text-align: start; text-wrap-mode: nowrap;&quot;&gt;%3CmxGraphModel%3E%3Croot%3E%3CmxCell%20id%3D%220%22%2F%3E%3CmxCell%20id%3D%221%22%20parent%3D%220%22%2F%3E%3CmxCell%20id%3D%222%22%20value%3D%22E28%20Conceptual%20Object%22%20style%3D%22rounded%3D1%3BwhiteSpace%3Dwrap%3Bhtml%3D1%3BperimeterSpacing%3D0%3BarcSize%3D50%3B%22%20vertex%3D%221%22%20parent%3D%221%22%3E%3CmxGeometry%20x%3D%22363%22%20y%3D%2220%22%20width%3D%22101%22%20height%3D%2240%22%20as%3D%22geometry%22%2F%3E%3C%2FmxCell%3E%3C%2Froot%3E%3C%2FmxGraphModel%3E&lt;/span&gt;" tags="cidoc" id="LwwzHbmZy4C10oGqhaBs-2">
          <mxCell style="rounded=1;html=1;perimeterSpacing=0;arcSize=50;whiteSpace=wrap;fontFamily=Verdana;spacingTop=0;spacingBottom=0;spacing=2;fillColor=#fff2cc;strokeColor=#d6b656;" vertex="1" parent="1">
            <mxGeometry x="-43" y="200" width="100" height="40" as="geometry" />
          </mxCell>
        </UserObject>
        <UserObject label="" tags="subclass_of" id="LwwzHbmZy4C10oGqhaBs-49">
          <mxCell style="rounded=1;orthogonalLoop=1;jettySize=auto;html=1;exitX=0.5;exitY=0;exitDx=0;exitDy=0;entryX=0.5;entryY=1;entryDx=0;entryDy=0;fontFamily=Verdana;spacingTop=0;spacingBottom=0;spacing=2;" edge="1" parent="1" source="LwwzHbmZy4C10oGqhaBs-3" target="LwwzHbmZy4C10oGqhaBs-1">
            <mxGeometry relative="1" as="geometry">
              <mxPoint x="-190" y="90" as="targetPoint" />
            </mxGeometry>
          </mxCell>
        </UserObject>
        <UserObject label="E89 Propositional Object" tags="cidoc" id="LwwzHbmZy4C10oGqhaBs-3">
          <mxCell style="rounded=1;html=1;perimeterSpacing=0;arcSize=50;whiteSpace=wrap;fontFamily=Verdana;spacingTop=0;spacingBottom=0;spacing=2;fillColor=#fff2cc;strokeColor=#d6b656;fontSize=11.5;" vertex="1" parent="1">
            <mxGeometry x="140" y="200" width="100" height="40" as="geometry" />
          </mxCell>
        </UserObject>
        <UserObject label="" tags="subclass_of" id="LwwzHbmZy4C10oGqhaBs-50">
          <mxCell style="rounded=1;orthogonalLoop=1;jettySize=auto;html=1;exitX=0.5;exitY=0;exitDx=0;exitDy=0;entryX=0.5;entryY=1;entryDx=0;entryDy=0;fontFamily=Verdana;spacingTop=0;spacingBottom=0;spacing=2;" edge="1" parent="1" source="LwwzHbmZy4C10oGqhaBs-4" target="LwwzHbmZy4C10oGqhaBs-1">
            <mxGeometry relative="1" as="geometry">
              <mxPoint x="-190" y="90" as="targetPoint" />
            </mxGeometry>
          </mxCell>
        </UserObject>
        <UserObject label="E90 Symbolic Object" tags="cidoc" id="LwwzHbmZy4C10oGqhaBs-4">
          <mxCell style="rounded=1;html=1;perimeterSpacing=0;arcSize=50;whiteSpace=wrap;fontFamily=Verdana;spacingTop=0;spacingBottom=0;spacing=2;fillColor=#fff2cc;strokeColor=#d6b656;" vertex="1" parent="1">
            <mxGeometry x="323" y="200" width="100" height="40" as="geometry" />
          </mxCell>
        </UserObject>
        <UserObject label="" tags="subclass_of" id="LwwzHbmZy4C10oGqhaBs-44">
          <mxCell style="rounded=1;orthogonalLoop=1;jettySize=auto;html=1;exitX=0.5;exitY=0;exitDx=0;exitDy=0;entryX=0.5;entryY=1;entryDx=0;entryDy=0;fontFamily=Verdana;spacingTop=0;spacingBottom=0;spacing=2;" edge="1" parent="1" source="LwwzHbmZy4C10oGqhaBs-5" target="LwwzHbmZy4C10oGqhaBs-1">
            <mxGeometry relative="1" as="geometry" />
          </mxCell>
        </UserObject>
        <UserObject label="INT2 Actualization of Feature" tags="intro" id="LwwzHbmZy4C10oGqhaBs-5">
          <mxCell style="rounded=1;html=1;perimeterSpacing=0;arcSize=50;whiteSpace=wrap;fontFamily=Verdana;spacingTop=0;spacingBottom=0;spacing=2;fillColor=#dae8fc;strokeColor=#6c8ebf;fontSize=11.5;" vertex="1" parent="1">
            <mxGeometry x="-570" y="200" width="100" height="40" as="geometry" />
          </mxCell>
        </UserObject>
        <UserObject label="" tags="subclass_of" id="LwwzHbmZy4C10oGqhaBs-45">
          <mxCell style="rounded=1;orthogonalLoop=1;jettySize=auto;html=1;exitX=0.5;exitY=0;exitDx=0;exitDy=0;entryX=0.5;entryY=1;entryDx=0;entryDy=0;fontFamily=Verdana;spacingTop=0;spacingBottom=0;spacing=2;" edge="1" parent="1" source="LwwzHbmZy4C10oGqhaBs-6" target="LwwzHbmZy4C10oGqhaBs-1">
            <mxGeometry relative="1" as="geometry">
              <mxPoint x="-190" y="90" as="targetPoint" />
            </mxGeometry>
          </mxCell>
        </UserObject>
        <UserObject label="INT3 Interrelation" tags="intro" id="LwwzHbmZy4C10oGqhaBs-6">
          <mxCell style="rounded=1;html=1;perimeterSpacing=0;arcSize=50;whiteSpace=wrap;fontFamily=Verdana;spacingTop=0;spacingBottom=0;spacing=2;fillColor=#dae8fc;strokeColor=#6c8ebf;" vertex="1" parent="1">
            <mxGeometry x="-438" y="200" width="100" height="40" as="geometry" />
          </mxCell>
        </UserObject>
        <UserObject label="" tags="subclass_of" id="LwwzHbmZy4C10oGqhaBs-46">
          <mxCell style="rounded=1;orthogonalLoop=1;jettySize=auto;html=1;exitX=0.5;exitY=0;exitDx=0;exitDy=0;entryX=0.5;entryY=1;entryDx=0;entryDy=0;fontFamily=Verdana;spacingTop=0;spacingBottom=0;spacing=2;" edge="1" parent="1" source="LwwzHbmZy4C10oGqhaBs-7" target="LwwzHbmZy4C10oGqhaBs-1">
            <mxGeometry relative="1" as="geometry">
              <mxPoint x="-190" y="90" as="targetPoint" />
            </mxGeometry>
          </mxCell>
        </UserObject>
        <UserObject label="INT4 Feature" tags="intro" id="LwwzHbmZy4C10oGqhaBs-7">
          <mxCell style="rounded=1;html=1;perimeterSpacing=0;arcSize=50;whiteSpace=wrap;fontFamily=Verdana;spacingTop=0;spacingBottom=0;spacing=2;fillColor=#dae8fc;strokeColor=#6c8ebf;" vertex="1" parent="1">
            <mxGeometry x="-306" y="200" width="100" height="40" as="geometry" />
          </mxCell>
        </UserObject>
        <UserObject label="" tags="subclass_of" id="LwwzHbmZy4C10oGqhaBs-47">
          <mxCell style="rounded=1;orthogonalLoop=1;jettySize=auto;html=1;exitX=0.5;exitY=0;exitDx=0;exitDy=0;entryX=0.5;entryY=1;entryDx=0;entryDy=0;fontFamily=Verdana;spacingTop=0;spacingBottom=0;spacing=2;" edge="1" parent="1" source="LwwzHbmZy4C10oGqhaBs-8" target="LwwzHbmZy4C10oGqhaBs-1">
            <mxGeometry relative="1" as="geometry">
              <mxPoint x="-190" y="90" as="targetPoint" />
            </mxGeometry>
          </mxCell>
        </UserObject>
        <UserObject label="INT6 Architext" tags="intro" id="LwwzHbmZy4C10oGqhaBs-8">
          <mxCell style="rounded=1;html=1;perimeterSpacing=0;arcSize=50;whiteSpace=wrap;fontFamily=Verdana;spacingTop=0;spacingBottom=0;spacing=2;fillColor=#dae8fc;strokeColor=#6c8ebf;" vertex="1" parent="1">
            <mxGeometry x="-175" y="200" width="100" height="40" as="geometry" />
          </mxCell>
        </UserObject>
        <UserObject label="" tags="subclass_of" id="LwwzHbmZy4C10oGqhaBs-56">
          <mxCell style="rounded=1;orthogonalLoop=1;jettySize=auto;html=1;exitX=0.5;exitY=0;exitDx=0;exitDy=0;entryX=0.5;entryY=1;entryDx=0;entryDy=0;fontFamily=Verdana;spacingTop=0;spacingBottom=0;spacing=2;" edge="1" parent="1" source="LwwzHbmZy4C10oGqhaBs-10" target="LwwzHbmZy4C10oGqhaBs-2">
            <mxGeometry relative="1" as="geometry" />
          </mxCell>
        </UserObject>
        <UserObject label="" tags="subclass_of" id="LwwzHbmZy4C10oGqhaBs-58">
          <mxCell style="rounded=1;orthogonalLoop=1;jettySize=auto;html=1;exitX=0.5;exitY=0;exitDx=0;exitDy=0;entryX=0.5;entryY=1;entryDx=0;entryDy=0;fontFamily=Verdana;spacingTop=0;spacingBottom=0;spacing=2;" edge="1" parent="1" source="LwwzHbmZy4C10oGqhaBs-24" target="LwwzHbmZy4C10oGqhaBs-3">
            <mxGeometry relative="1" as="geometry" />
          </mxCell>
        </UserObject>
        <UserObject label="" tags="subclass_of" id="LwwzHbmZy4C10oGqhaBs-59">
          <mxCell style="rounded=1;orthogonalLoop=1;jettySize=auto;html=1;exitX=0.5;exitY=0;exitDx=0;exitDy=0;entryX=0.5;entryY=1;entryDx=0;entryDy=0;fontFamily=Verdana;spacingTop=0;spacingBottom=0;spacing=2;" edge="1" parent="1" source="LwwzHbmZy4C10oGqhaBs-25" target="LwwzHbmZy4C10oGqhaBs-3">
            <mxGeometry relative="1" as="geometry">
              <mxPoint x="170" y="280" as="targetPoint" />
            </mxGeometry>
          </mxCell>
        </UserObject>
        <UserObject label="" tags="subclass_of" id="LwwzHbmZy4C10oGqhaBs-51">
          <mxCell style="rounded=1;orthogonalLoop=1;jettySize=auto;html=1;exitX=0.5;exitY=0;exitDx=0;exitDy=0;entryX=0.5;entryY=1;entryDx=0;entryDy=0;fontFamily=Verdana;spacingTop=0;spacingBottom=0;spacing=2;" edge="1" parent="1" source="LwwzHbmZy4C10oGqhaBs-11" target="LwwzHbmZy4C10oGqhaBs-6">
            <mxGeometry relative="1" as="geometry" />
          </mxCell>
        </UserObject>
        <UserObject label="" tags="subclass_of" id="LwwzHbmZy4C10oGqhaBs-54">
          <mxCell style="rounded=1;orthogonalLoop=1;jettySize=auto;html=1;entryX=0.5;entryY=1;entryDx=0;entryDy=0;exitX=0.5;exitY=0;exitDx=0;exitDy=0;fontFamily=Verdana;spacingTop=0;spacingBottom=0;spacing=2;" edge="1" parent="1" source="LwwzHbmZy4C10oGqhaBs-14" target="LwwzHbmZy4C10oGqhaBs-7">
            <mxGeometry relative="1" as="geometry" />
          </mxCell>
        </UserObject>
        <UserObject label="" tags="subclass_of" id="LwwzHbmZy4C10oGqhaBs-55">
          <mxCell style="rounded=1;orthogonalLoop=1;jettySize=auto;html=1;exitX=0.5;exitY=0;exitDx=0;exitDy=0;entryX=0.5;entryY=1;entryDx=0;entryDy=0;fontFamily=Verdana;spacingTop=0;spacingBottom=0;spacing=2;" edge="1" parent="1" source="LwwzHbmZy4C10oGqhaBs-21" target="LwwzHbmZy4C10oGqhaBs-8">
            <mxGeometry relative="1" as="geometry" />
          </mxCell>
        </UserObject>
        <UserObject label="" tags="subclass_of" id="LwwzHbmZy4C10oGqhaBs-60">
          <mxCell style="rounded=1;orthogonalLoop=1;jettySize=auto;html=1;exitX=0.5;exitY=0;exitDx=0;exitDy=0;entryX=0.5;entryY=1;entryDx=0;entryDy=0;fontFamily=Verdana;spacingTop=0;spacingBottom=0;spacing=2;" edge="1" parent="1" source="LwwzHbmZy4C10oGqhaBs-29" target="LwwzHbmZy4C10oGqhaBs-4">
            <mxGeometry relative="1" as="geometry" />
          </mxCell>
        </UserObject>
        <UserObject label="" tags="subclass_of" id="LwwzHbmZy4C10oGqhaBs-61">
          <mxCell style="rounded=1;orthogonalLoop=1;jettySize=auto;html=1;exitX=0.5;exitY=0;exitDx=0;exitDy=0;entryX=0.5;entryY=1;entryDx=0;entryDy=0;fontFamily=Verdana;spacingTop=0;spacingBottom=0;spacing=2;" edge="1" parent="1" source="LwwzHbmZy4C10oGqhaBs-30" target="LwwzHbmZy4C10oGqhaBs-4">
            <mxGeometry relative="1" as="geometry">
              <mxPoint x="310" y="240" as="targetPoint" />
            </mxGeometry>
          </mxCell>
        </UserObject>
        <UserObject label="" tags="subclass_of" id="LwwzHbmZy4C10oGqhaBs-53">
          <mxCell style="rounded=1;orthogonalLoop=1;jettySize=auto;html=1;exitX=0.5;exitY=0;exitDx=0;exitDy=0;entryX=0.5;entryY=1;entryDx=0;entryDy=0;fontFamily=Verdana;spacingTop=0;spacingBottom=0;spacing=2;" edge="1" parent="1" source="LwwzHbmZy4C10oGqhaBs-13" target="LwwzHbmZy4C10oGqhaBs-6">
            <mxGeometry relative="1" as="geometry">
              <mxPoint x="-540" y="260" as="targetPoint" />
            </mxGeometry>
          </mxCell>
        </UserObject>
        <UserObject label="" tags="subclass_of" id="LwwzHbmZy4C10oGqhaBs-52">
          <mxCell style="rounded=1;orthogonalLoop=1;jettySize=auto;html=1;exitX=0.5;exitY=0;exitDx=0;exitDy=0;entryX=0.5;entryY=1;entryDx=0;entryDy=0;fontFamily=Verdana;spacingTop=0;spacingBottom=0;spacing=2;" edge="1" parent="1" source="LwwzHbmZy4C10oGqhaBs-12" target="LwwzHbmZy4C10oGqhaBs-6">
            <mxGeometry relative="1" as="geometry">
              <mxPoint x="-540" y="260" as="targetPoint" />
            </mxGeometry>
          </mxCell>
        </UserObject>
        <UserObject label="INT11 Type of Interrelation" tags="intro" id="LwwzHbmZy4C10oGqhaBs-10">
          <mxCell style="rounded=1;html=1;perimeterSpacing=0;arcSize=50;container=0;whiteSpace=wrap;fontFamily=Verdana;spacingTop=0;spacingBottom=0;spacing=2;fillColor=#dae8fc;strokeColor=#6c8ebf;" vertex="1" parent="1">
            <mxGeometry x="-44" y="316" width="101" height="40" as="geometry" />
          </mxCell>
        </UserObject>
        <UserObject label="" tags="subclass_of" id="LwwzHbmZy4C10oGqhaBs-64">
          <mxCell style="rounded=1;orthogonalLoop=1;jettySize=auto;html=1;entryX=0.5;entryY=1;entryDx=0;entryDy=0;fontFamily=Verdana;spacingTop=0;spacingBottom=0;spacing=2;" edge="1" parent="1" source="LwwzHbmZy4C10oGqhaBs-39" target="LwwzHbmZy4C10oGqhaBs-30">
            <mxGeometry relative="1" as="geometry" />
          </mxCell>
        </UserObject>
        <UserObject label="INT21 Text Passage" tags="intro" id="LwwzHbmZy4C10oGqhaBs-39">
          <mxCell style="rounded=1;html=1;perimeterSpacing=0;arcSize=50;container=0;whiteSpace=wrap;fontFamily=Verdana;spacingTop=0;spacingBottom=0;spacing=2;fillColor=#dae8fc;strokeColor=#6c8ebf;" vertex="1" parent="1">
            <mxGeometry x="322" y="421" width="101" height="40" as="geometry" />
          </mxCell>
        </UserObject>
        <UserObject label="" tags="subclass_of" id="LwwzHbmZy4C10oGqhaBs-65">
          <mxCell style="rounded=1;orthogonalLoop=1;jettySize=auto;html=1;entryX=0.5;entryY=1;entryDx=0;entryDy=0;fontFamily=Verdana;spacingTop=0;spacingBottom=0;spacing=2;" edge="1" parent="1" source="LwwzHbmZy4C10oGqhaBs-40" target="LwwzHbmZy4C10oGqhaBs-30">
            <mxGeometry relative="1" as="geometry" />
          </mxCell>
        </UserObject>
        <UserObject label="INT22 Image Area" tags="intro" id="LwwzHbmZy4C10oGqhaBs-40">
          <mxCell style="rounded=1;html=1;perimeterSpacing=0;arcSize=50;container=0;whiteSpace=wrap;fontFamily=Verdana;spacingTop=0;spacingBottom=0;spacing=2;fillColor=#dae8fc;strokeColor=#6c8ebf;" vertex="1" parent="1">
            <mxGeometry x="435" y="421" width="101" height="40" as="geometry" />
          </mxCell>
        </UserObject>
        <UserObject label="" tags="subclass_of" id="LwwzHbmZy4C10oGqhaBs-57">
          <mxCell style="rounded=1;orthogonalLoop=1;jettySize=auto;html=1;exitX=0.5;exitY=0;exitDx=0;exitDy=0;entryX=0.5;entryY=1;entryDx=0;entryDy=0;fontFamily=Verdana;spacingTop=0;spacingBottom=0;spacing=2;" edge="1" parent="1" source="LwwzHbmZy4C10oGqhaBs-18" target="LwwzHbmZy4C10oGqhaBs-10">
            <mxGeometry relative="1" as="geometry" />
          </mxCell>
        </UserObject>
        <UserObject label="" tags="subclass_of" id="LwwzHbmZy4C10oGqhaBs-62">
          <mxCell style="rounded=1;orthogonalLoop=1;jettySize=auto;html=1;entryX=0.5;entryY=1;entryDx=0;entryDy=0;fontFamily=Verdana;spacingTop=0;spacingBottom=0;spacing=2;" edge="1" parent="1" source="LwwzHbmZy4C10oGqhaBs-26" target="LwwzHbmZy4C10oGqhaBs-25">
            <mxGeometry relative="1" as="geometry" />
          </mxCell>
        </UserObject>
        <UserObject label="" tags="subclass_of" id="LwwzHbmZy4C10oGqhaBs-63">
          <mxCell style="rounded=1;orthogonalLoop=1;jettySize=auto;html=1;entryX=0.5;entryY=1;entryDx=0;entryDy=0;fontFamily=Verdana;spacingTop=0;spacingBottom=0;spacing=2;" edge="1" parent="1" source="LwwzHbmZy4C10oGqhaBs-27" target="LwwzHbmZy4C10oGqhaBs-25">
            <mxGeometry relative="1" as="geometry" />
          </mxCell>
        </UserObject>
        <UserObject label="F2 Expression" tags="lrmoo" id="LwwzHbmZy4C10oGqhaBs-26">
          <mxCell style="rounded=1;html=1;perimeterSpacing=0;arcSize=50;container=0;whiteSpace=wrap;fontFamily=Verdana;spacingTop=0;spacingBottom=0;spacing=2;fillColor=#ffe6cc;strokeColor=#d79b00;" vertex="1" parent="1">
            <mxGeometry x="87" y="421" width="101" height="40" as="geometry" />
          </mxCell>
        </UserObject>
        <UserObject label="F3 Manifestation" tags="lrmoo" id="LwwzHbmZy4C10oGqhaBs-27">
          <mxCell style="rounded=1;html=1;perimeterSpacing=0;arcSize=50;container=0;whiteSpace=wrap;fontFamily=Verdana;spacingTop=0;spacingBottom=0;spacing=2;fillColor=#ffe6cc;strokeColor=#d79b00;" vertex="1" parent="1">
            <mxGeometry x="200" y="421" width="101" height="40" as="geometry" />
          </mxCell>
        </UserObject>
        <UserObject label="INT31 Intertextual Relation" tags="intro" id="LwwzHbmZy4C10oGqhaBs-11">
          <mxCell style="rounded=1;html=1;perimeterSpacing=0;arcSize=50;container=0;whiteSpace=wrap;fontFamily=Verdana;spacingTop=0;spacingBottom=0;spacing=2;fillColor=#dae8fc;strokeColor=#6c8ebf;fontSize=11.5;" vertex="1" parent="1">
            <mxGeometry x="-503" y="316" width="101" height="40" as="geometry" />
          </mxCell>
        </UserObject>
        <UserObject label="INT32 Interpictorial Relation" tags="intro" id="LwwzHbmZy4C10oGqhaBs-12">
          <mxCell style="rounded=1;html=1;perimeterSpacing=0;arcSize=50;container=0;whiteSpace=wrap;fontFamily=Verdana;spacingTop=0;spacingBottom=0;spacing=2;fillColor=#dae8fc;strokeColor=#6c8ebf;fontSize=11.5;" vertex="1" parent="1">
            <mxGeometry x="-453" y="366" width="101" height="40" as="geometry" />
          </mxCell>
        </UserObject>
        <UserObject label="INT33 Intermedial Relation" tags="intro" id="LwwzHbmZy4C10oGqhaBs-13">
          <mxCell style="rounded=1;html=1;perimeterSpacing=0;arcSize=50;container=0;whiteSpace=wrap;fontFamily=Verdana;spacingTop=0;spacingBottom=0;spacing=2;fillColor=#dae8fc;strokeColor=#6c8ebf;fontSize=11.5;" vertex="1" parent="1">
            <mxGeometry x="-402" y="416" width="101" height="40" as="geometry" />
          </mxCell>
        </UserObject>
        <UserObject label="F1 Work" tags="lrmoo" id="LwwzHbmZy4C10oGqhaBs-24">
          <mxCell style="rounded=1;html=1;perimeterSpacing=0;arcSize=50;container=0;whiteSpace=wrap;fontFamily=Verdana;spacingTop=0;spacingBottom=0;spacing=2;fillColor=#ffe6cc;strokeColor=#d79b00;" vertex="1" parent="1">
            <mxGeometry x="87" y="316" width="101" height="40" as="geometry" />
          </mxCell>
        </UserObject>
        <UserObject label="E73 Information Object" tags="cidoc" id="LwwzHbmZy4C10oGqhaBs-25">
          <mxCell style="rounded=1;html=1;perimeterSpacing=0;arcSize=50;container=0;whiteSpace=wrap;fontFamily=Verdana;spacingTop=0;spacingBottom=0;spacing=2;fillColor=#fff2cc;strokeColor=#d6b656;fontSize=11.5;" vertex="1" parent="1">
            <mxGeometry x="200" y="316" width="101" height="40" as="geometry" />
          </mxCell>
        </UserObject>
        <UserObject label="INT16 Segment" tags="intro" id="LwwzHbmZy4C10oGqhaBs-29">
          <mxCell style="rounded=1;html=1;perimeterSpacing=0;arcSize=50;container=0;whiteSpace=wrap;fontFamily=Verdana;spacingTop=0;spacingBottom=0;spacing=2;fillColor=#dae8fc;strokeColor=#6c8ebf;" vertex="1" parent="1">
            <mxGeometry x="322" y="316" width="101" height="40" as="geometry" />
          </mxCell>
        </UserObject>
        <UserObject label="INT1 Passage" tags="intro" id="LwwzHbmZy4C10oGqhaBs-30">
          <mxCell style="rounded=1;html=1;perimeterSpacing=0;arcSize=50;container=0;whiteSpace=wrap;fontFamily=Verdana;spacingTop=0;spacingBottom=0;spacing=2;fillColor=#dae8fc;strokeColor=#6c8ebf;" vertex="1" parent="1">
            <mxGeometry x="435" y="316" width="101" height="40" as="geometry" />
          </mxCell>
        </UserObject>
        <UserObject label="" tags="intro_omitted" id="LwwzHbmZy4C10oGqhaBs-14">
          <mxCell style="rounded=1;html=1;perimeterSpacing=0;arcSize=50;dashed=1;dashPattern=8 8;container=0;whiteSpace=wrap;fontFamily=Verdana;spacingTop=0;spacingBottom=0;spacing=2;fillColor=#dae8fc;strokeColor=#6c8ebf;" vertex="1" parent="1">
            <mxGeometry x="-307" y="316" width="101" height="40" as="geometry" />
          </mxCell>
        </UserObject>
        <UserObject label="" tags="intro_omitted" id="LwwzHbmZy4C10oGqhaBs-15">
          <mxCell style="rounded=1;html=1;perimeterSpacing=0;arcSize=50;dashed=1;dashPattern=8 8;container=0;whiteSpace=wrap;fontFamily=Verdana;spacingTop=0;spacingBottom=0;spacing=2;fillColor=#dae8fc;strokeColor=#6c8ebf;" vertex="1" parent="1">
            <mxGeometry x="-296" y="326" width="101" height="40" as="geometry" />
          </mxCell>
        </UserObject>
        <UserObject label="" tags="intro_omitted" id="LwwzHbmZy4C10oGqhaBs-16">
          <mxCell style="rounded=1;html=1;perimeterSpacing=0;arcSize=50;dashed=1;dashPattern=8 8;container=0;whiteSpace=wrap;fontFamily=Verdana;spacingTop=0;spacingBottom=0;spacing=2;fillColor=#dae8fc;strokeColor=#6c8ebf;" vertex="1" parent="1">
            <mxGeometry x="-284" y="336" width="101" height="40" as="geometry" />
          </mxCell>
        </UserObject>
        <UserObject label="" tags="intro_omitted" id="LwwzHbmZy4C10oGqhaBs-21">
          <mxCell style="rounded=1;html=1;perimeterSpacing=0;arcSize=50;dashed=1;dashPattern=8 8;container=0;whiteSpace=wrap;fontFamily=Verdana;spacingTop=0;spacingBottom=0;spacing=2;fillColor=#dae8fc;strokeColor=#6c8ebf;" vertex="1" parent="1">
            <mxGeometry x="-176" y="316" width="101" height="40" as="geometry" />
          </mxCell>
        </UserObject>
        <UserObject label="" tags="intro_omitted" id="LwwzHbmZy4C10oGqhaBs-22">
          <mxCell style="rounded=1;html=1;perimeterSpacing=0;arcSize=50;dashed=1;dashPattern=8 8;container=0;whiteSpace=wrap;fontFamily=Verdana;spacingTop=0;spacingBottom=0;spacing=2;fillColor=#dae8fc;strokeColor=#6c8ebf;" vertex="1" parent="1">
            <mxGeometry x="-166" y="326" width="101" height="40" as="geometry" />
          </mxCell>
        </UserObject>
        <UserObject label="" tags="intro_omitted" id="LwwzHbmZy4C10oGqhaBs-23">
          <mxCell style="rounded=1;html=1;perimeterSpacing=0;arcSize=50;dashed=1;dashPattern=8 8;container=0;whiteSpace=wrap;fontFamily=Verdana;spacingTop=0;spacingBottom=0;spacing=2;fillColor=#dae8fc;strokeColor=#6c8ebf;" vertex="1" parent="1">
            <mxGeometry x="-153" y="336" width="101" height="40" as="geometry" />
          </mxCell>
        </UserObject>
        <UserObject label="" tags="intro_omitted" id="LwwzHbmZy4C10oGqhaBs-18">
          <mxCell style="rounded=1;html=1;perimeterSpacing=0;arcSize=50;dashed=1;dashPattern=8 8;container=0;whiteSpace=wrap;fontFamily=Verdana;spacingTop=0;spacingBottom=0;spacing=2;fillColor=#dae8fc;strokeColor=#6c8ebf;" vertex="1" parent="1">
            <mxGeometry x="-44" y="426" width="101" height="40" as="geometry" />
          </mxCell>
        </UserObject>
        <UserObject label="" tags="intro_omitted" id="LwwzHbmZy4C10oGqhaBs-19">
          <mxCell style="rounded=1;html=1;perimeterSpacing=0;arcSize=50;dashed=1;dashPattern=8 8;container=0;whiteSpace=wrap;fontFamily=Verdana;spacingTop=0;spacingBottom=0;spacing=2;fillColor=#dae8fc;strokeColor=#6c8ebf;" vertex="1" parent="1">
            <mxGeometry x="-34" y="436" width="101" height="40" as="geometry" />
          </mxCell>
        </UserObject>
        <UserObject label="" tags="intro_omitted" id="LwwzHbmZy4C10oGqhaBs-20">
          <mxCell style="rounded=1;html=1;perimeterSpacing=0;arcSize=50;dashed=1;dashPattern=8 8;container=0;whiteSpace=wrap;fontFamily=Verdana;spacingTop=0;spacingBottom=0;spacing=2;fillColor=#dae8fc;strokeColor=#6c8ebf;" vertex="1" parent="1">
            <mxGeometry x="-21" y="446" width="101" height="40" as="geometry" />
          </mxCell>
        </UserObject>
      </root>
    </mxGraphModel>
  </diagram>
</mxfile>
